<svg width="29" height="28" viewBox="0 0 29 28" fill="none" xmlns="http://www.w3.org/2000/svg">
<path d="M0.470018 27.2658V9.50015H6.12783V27.2658H0.470018ZM3.31248 6.5C2.47133 6.5 1.74972 6.22109 1.14763 5.66328C0.554403 5.09661 0.257788 4.41927 0.257788 3.63125C0.257788 2.85208 0.554403 2.18359 1.14763 1.62578C1.74972 1.05911 2.47133 0.775781 3.31248 0.775781C4.15362 0.775781 4.87081 1.05911 5.46404 1.62578C6.06612 2.18359 6.36716 2.85208 6.36716 3.63125C6.36716 4.41927 6.06612 5.09661 5.46404 5.66328C4.87081 6.22109 4.15362 6.5 3.31248 6.5Z" fill="#FFC700"/>
<path d="M15.4998 17.6705V27.2658H9.57105V9.50015H14.9632H15.4998C15.4998 10.5001 15.4998 11.0001 15.9912 11.0001C17.0537 10.3007 19.8242 9.00015 21.3382 9.00015C22.7549 9.00015 23.9901 9.31005 25.0437 9.92984C26.0973 10.5496 26.9164 11.435 27.5007 12.5861C28.0851 13.7283 28.3773 15.0918 28.3773 16.6767V27.2658H21.9998V17.4845C22.0086 16.2361 21.6899 15.2621 21.0435 14.5626C20.3972 13.8543 19.7783 13.5001 18.6449 13.5001C17.8835 13.5001 17.9302 13.664 17.3459 13.9916C16.7703 14.3192 16.3188 14.7973 15.9912 15.4259C15.6724 16.0457 15.5086 16.7939 15.4998 17.6705Z" fill="#FFC700"/>
</svg>
