<svg width="35" height="26" viewBox="0 0 35 26" fill="none" xmlns="http://www.w3.org/2000/svg">
<path d="M30.8381 0.0335052L17.0809 0.0670103L3.32371 0H3.31701C1.46753 0 0 1.73557 0 3.9067V22.0933C0 24.2644 1.46753 26 3.31701 26H30.8582C32.7077 26 34.1753 24.2644 34.1753 22.0933V3.9067C34.1753 1.73557 32.7211 0.0335052 30.8381 0.0335052ZM29.7593 2.71392L17.4696 13.9515L17.4227 13.9918L17.3825 14.0387C17.2351 14.1995 17.0608 14.2196 16.967 14.2196C16.8732 14.2196 16.699 14.1928 16.5582 14.0253L16.518 13.9784L4.77113 2.66031L17.0809 2.74072L29.7593 2.71392ZM30.8582 23.3196H3.31701C3.08247 23.3196 2.68041 22.8773 2.68041 22.0933V4.33557L14.5814 15.8345C15.1845 16.5046 16.0356 16.8933 16.9402 16.9067H16.9804C17.8717 16.9067 18.7026 16.5381 19.3124 15.8948L31.5083 4.73093V22.0933C31.4948 22.8773 31.0928 23.3196 30.8582 23.3196Z" fill="#FFC700"/>
</svg>
