<svg width="30" height="30" viewBox="0 0 30 30" fill="none" xmlns="http://www.w3.org/2000/svg">
<path d="M28.7481 20.6679L26.0693 17.9892C25.2708 17.197 24.193 16.7505 23.0682 16.7457C21.9435 16.7409 20.8619 17.1783 20.0567 17.9636C19.627 18.3957 19.0602 18.6646 18.4537 18.7239C17.8472 18.7832 17.2391 18.6293 16.7338 18.2887C14.7396 16.9578 13.0264 15.2479 11.6916 13.2562C11.357 12.7453 11.2086 12.1347 11.2716 11.5272C11.3346 10.9197 11.6051 10.3525 12.0374 9.92117C12.8156 9.11518 13.2474 8.03661 13.2403 6.91629C13.2332 5.79597 12.7879 4.72291 11.9997 3.9268L9.32088 1.24802C8.51889 0.448778 7.43281 0 6.30056 0C5.16832 0 4.08223 0.448778 3.28024 1.24802L2.50948 2.01999C-1.50868 6.03816 -1.20793 14.486 7.15229 22.8414C12.1933 27.8836 17.2671 29.9949 21.3815 29.9949C22.5926 30.0353 23.7996 29.8341 24.9323 29.4033C26.0649 28.9725 27.1004 28.3205 27.9786 27.4854L28.7505 26.7134C29.5512 25.9111 30.0007 24.8237 30.0003 23.6902C29.9998 22.5566 29.5494 21.4696 28.7481 20.6679ZM27.0264 24.9917L26.2544 25.7637C23.0886 28.9295 16.1006 28.3511 8.87158 21.1209C1.64254 13.8906 1.06295 6.8978 4.22877 3.73197L4.99466 2.96122C5.3395 2.61762 5.80646 2.4247 6.29326 2.4247C6.78005 2.4247 7.24701 2.61762 7.59185 2.96122L10.2706 5.63999C10.6092 5.98027 10.8014 6.43939 10.8062 6.91939C10.8109 7.39938 10.6279 7.86224 10.2962 8.20918C9.47342 9.03721 8.96019 10.1228 8.84248 11.2842C8.72477 12.4455 9.00974 13.6121 9.64964 14.5883C11.1663 16.8579 13.1165 18.8052 15.3883 20.3185C16.3617 20.9585 17.5251 21.2451 18.6844 21.1305C19.8436 21.016 20.9285 20.5071 21.7577 19.689C22.104 19.3533 22.5682 19.1669 23.0504 19.1699C23.5327 19.1728 23.9945 19.3649 24.3366 19.7048L27.0154 22.3836C27.1881 22.5537 27.3254 22.7563 27.4194 22.9797C27.5135 23.2032 27.5624 23.443 27.5634 23.6854C27.5644 23.9278 27.5175 24.168 27.4253 24.3922C27.3332 24.6164 27.1976 24.8201 27.0264 24.9917Z" fill="#FFC700"/>
</svg>
