<svg width="195" height="31" viewBox="0 0 195 31" fill="none" xmlns="http://www.w3.org/2000/svg">
<path d="M2.22449 7.05521C8.22066 7.05521 13.5357 5.27321 19.3575 4.08729C37.277 0.437015 56.5475 2.19862 74.6686 2.19862C113.656 2.19862 152.644 2.19862 191.632 2.19862C197.422 2.19862 180.107 3.35266 174.364 4.08729C156.148 6.4172 138.118 9.92678 119.997 12.8561C102.299 15.717 84.3677 17.4752 66.5743 19.6689C61.8107 20.2562 48.687 18.1664 52.2744 21.3552C54.8656 23.6585 65.8454 20.2066 68.6654 19.8038C82.7923 17.7856 96.9616 16.8397 111.228 16.7684C112.726 16.7609 135.581 15.9113 126.405 16.9033C118.613 17.7456 110.749 20.2487 102.999 21.625C95.4034 22.9737 87.7635 24.4712 80.1998 25.942C78.2491 26.3213 71.4748 27.6957 77.3668 27.6957C82.5885 27.6957 106.92 24.6114 109.069 28.9099" stroke="#FFF5D5" stroke-width="3" stroke-linecap="round"/>
</svg>
